<svg width="1001" height="999" viewBox="0 0 1001 999" fill="none" xmlns="http://www.w3.org/2000/svg">
<path fill-rule="evenodd" clip-rule="evenodd" d="M473.337 309.47C479.729 318.94 484.878 329.652 488.784 341.608H534.239C530.924 323.971 524.887 307.931 516.128 293.49C507.368 278.93 496.419 266.442 483.28 256.026C470.259 245.491 455.403 237.382 438.713 231.7C422.141 225.9 404.267 223 385.091 223C361.772 223 340.406 227.321 320.993 235.962C301.58 244.603 284.771 257.032 270.567 273.249C256.362 289.465 245.354 309.115 237.541 332.197C229.847 355.161 226 381.026 226 409.79C226 448.142 232.747 481.286 246.241 509.222C259.854 537.157 278.794 558.701 303.06 573.852C327.444 589.004 355.735 596.58 387.932 596.58C416.814 596.58 442.383 590.543 464.636 578.469C474.834 572.911 484.024 566.321 492.205 558.697V775.608H536.239V612.966H730.131V775.608H774.165V411.972H730.131V573.903H536.239V456.19C536.326 453.771 536.369 451.325 536.369 448.852V409.79H397.875V448.852H492.205V467.646C490.189 481.055 486.208 493.197 480.261 504.072C471.384 520.408 458.955 533.073 442.974 542.07C427.113 550.947 408.765 555.386 387.932 555.386C365.441 555.386 345.2 549.823 327.207 538.696C309.215 527.569 294.951 511.175 284.416 489.513C273.881 467.851 268.614 441.277 268.614 409.79C268.614 378.303 273.822 351.729 284.239 330.067C294.655 308.405 308.682 292.01 326.32 280.884C343.957 269.757 363.547 264.193 385.091 264.193C398.23 264.193 410.304 265.969 421.312 269.52C432.321 273.071 442.146 278.22 450.787 284.967C459.546 291.714 467.063 299.882 473.337 309.47Z" fill="white"/>
</svg>
